<svg width="152" height="51" viewBox="0 0 152 51" fill="none" xmlns="http://www.w3.org/2000/svg">
<rect x="1" y="0.5" width="150" height="50" rx="8" fill="white"/>
<rect x="1" y="0.5" width="150" height="50" rx="8" stroke="#EBEFF6"/>
<path d="M89.0095 38.4609C83.2244 42.725 74.8394 45 67.62 45C57.4973 45 48.3842 41.256 41.4898 35.0289C40.9482 34.5392 41.4335 33.8719 42.0835 34.2532C49.5239 38.5823 58.7236 41.1866 68.2267 41.1866C74.6357 41.1866 81.6861 39.8606 88.1688 37.1089C89.1482 36.6929 89.9672 37.7503 89.0095 38.4609Z" fill="#FF9900"/>
<path d="M91.4146 35.7091C90.6779 34.7644 86.5265 35.2628 84.6632 35.4838C84.0955 35.5531 84.0088 35.0591 84.5202 34.7038C87.8265 32.3768 93.2519 33.0484 93.8846 33.8284C94.5172 34.6128 93.7199 40.0512 90.6129 42.6468C90.1362 43.0455 89.6812 42.8332 89.8935 42.3045C90.5912 40.5625 92.1556 36.6581 91.4146 35.7091Z" fill="#FF9900"/>
<path d="M84.793 18.276V16.014C84.793 15.6716 85.053 15.442 85.365 15.442H95.4921C95.8171 15.442 96.0771 15.676 96.0771 16.014V17.951C96.0728 18.276 95.7998 18.7007 95.3144 19.3723L90.0667 26.8647C92.0167 26.8171 94.0751 27.1074 95.8431 28.1041C96.2418 28.3294 96.3501 28.6587 96.3804 28.9837V31.3974C96.3804 31.7268 96.0164 32.1124 95.6351 31.9131C92.5194 30.2794 88.381 30.1018 84.936 31.9304C84.585 32.1211 84.2167 31.7398 84.2167 31.4104V29.1181C84.2167 28.7497 84.221 28.1214 84.5894 27.5624L90.6691 18.8437H85.378C85.053 18.8437 84.793 18.614 84.793 18.276Z" fill="#221F1F"/>
<path d="M47.8506 32.3899H44.7696C44.4749 32.3682 44.2409 32.1472 44.2193 31.8656V16.0531C44.2193 15.7367 44.4836 15.4854 44.8129 15.4854H47.686C47.985 15.4984 48.2233 15.7281 48.245 16.0141V18.0811H48.3013C49.051 16.0834 50.4593 15.1517 52.3573 15.1517C54.2857 15.1517 55.4903 16.0834 56.357 18.0811C57.1024 16.0834 58.7967 15.1517 60.6124 15.1517C61.9037 15.1517 63.3164 15.6847 64.1787 16.8807C65.1537 18.2111 64.9544 20.1438 64.9544 21.8381L64.9501 31.8179C64.9501 32.1342 64.6857 32.3899 64.3564 32.3899H61.2797C60.9721 32.3682 60.7251 32.1212 60.7251 31.8179V23.4371C60.7251 22.7698 60.7857 21.1058 60.6384 20.4731C60.4087 19.4114 59.7197 19.1124 58.827 19.1124C58.0817 19.1124 57.3017 19.6108 56.9854 20.4081C56.669 21.2055 56.6994 22.5401 56.6994 23.4371V31.8179C56.6994 32.1342 56.435 32.3899 56.1057 32.3899H53.029C52.717 32.3682 52.4743 32.1212 52.4743 31.8179L52.47 23.4371C52.47 21.6735 52.7603 19.0778 50.572 19.0778C48.3576 19.0778 48.4443 21.6085 48.4443 23.4371V31.8179C48.4443 32.1342 48.18 32.3899 47.8506 32.3899Z" fill="#221F1F"/>
<path d="M104.795 15.1517C109.367 15.1517 111.842 19.0778 111.842 24.0698C111.842 28.8929 109.107 32.7192 104.795 32.7192C100.306 32.7192 97.8621 28.7932 97.8621 23.9008C97.8621 18.9781 100.336 15.1517 104.795 15.1517ZM104.821 18.3801C102.551 18.3801 102.408 21.4741 102.408 23.4025C102.408 25.3352 102.377 29.4605 104.795 29.4605C107.183 29.4605 107.296 26.1325 107.296 24.1045C107.296 22.7698 107.24 21.1751 106.836 19.9098C106.49 18.8091 105.801 18.3801 104.821 18.3801Z" fill="#221F1F"/>
<path d="M117.769 32.3899H114.701C114.394 32.3682 114.147 32.1212 114.147 31.8179L114.142 16.0011C114.168 15.7107 114.424 15.4854 114.736 15.4854H117.592C117.86 15.4984 118.081 15.6804 118.142 15.9274V18.3454H118.198C119.061 16.1831 120.27 15.1517 122.397 15.1517C123.78 15.1517 125.128 15.6501 125.994 17.0151C126.8 18.2804 126.8 20.4081 126.8 21.9378V31.8916C126.766 32.1689 126.51 32.3899 126.207 32.3899H123.117C122.835 32.3682 122.601 32.1602 122.571 31.8916V23.3028C122.571 21.5738 122.77 19.0431 120.642 19.0431C119.893 19.0431 119.204 19.5458 118.861 20.3084C118.428 21.2748 118.372 22.2368 118.372 23.3028V31.8179C118.367 32.1342 118.099 32.3899 117.769 32.3899Z" fill="#221F1F"/>
<path d="M76.7197 24.8368V24.1694C74.4923 24.1694 72.1393 24.6461 72.1393 27.2721C72.1393 28.6025 72.8283 29.5038 74.0113 29.5038C74.878 29.5038 75.6537 28.9708 76.1433 28.1041C76.75 27.0381 76.7197 26.0371 76.7197 24.8368ZM79.8267 32.3465C79.623 32.5285 79.3284 32.5415 79.0987 32.4202C78.076 31.5708 77.894 31.1765 77.3307 30.3661C75.6407 32.0908 74.4447 32.6065 72.252 32.6065C69.6606 32.6065 67.6413 31.0075 67.6413 27.8051C67.6413 25.3048 68.9976 23.6017 70.926 22.7697C72.5986 22.0331 74.9343 21.9031 76.7197 21.6994V21.3007C76.7197 20.5684 76.776 19.7017 76.347 19.069C75.97 18.5014 75.2507 18.2674 74.618 18.2674C73.4436 18.2674 72.395 18.8697 72.1393 20.1177C72.0873 20.3951 71.8836 20.6681 71.6063 20.6811L68.6163 20.3604C68.3649 20.3041 68.0876 20.1004 68.1569 19.7147C68.8459 16.092 72.1176 15 75.047 15C76.5463 15 78.505 15.3987 79.688 16.534C81.1874 17.9337 81.0444 19.8014 81.0444 21.8337V26.6351C81.0444 28.0781 81.6424 28.7108 82.2057 29.4908C82.405 29.7681 82.4484 30.1018 82.197 30.3098C81.5687 30.8341 80.4507 31.8092 79.8354 32.3552L79.8267 32.3465Z" fill="#221F1F"/>
<path d="M36.3284 24.8368V24.1694C34.101 24.1694 31.748 24.6461 31.748 27.2721C31.748 28.6025 32.437 29.5038 33.62 29.5038C34.4867 29.5038 35.2624 28.9708 35.7521 28.1041C36.3587 27.0381 36.3284 26.0371 36.3284 24.8368ZM39.4354 32.3465C39.2317 32.5285 38.9371 32.5415 38.7074 32.4202C37.6847 31.5708 37.5027 31.1765 36.9394 30.3661C35.2494 32.0908 34.0534 32.6065 31.8607 32.6065C29.2693 32.6065 27.25 31.0075 27.25 27.8051C27.25 25.3048 28.6063 23.6017 30.5347 22.7697C32.2074 22.0331 34.543 21.9031 36.3284 21.6994V21.3007C36.3284 20.5684 36.3847 19.7017 35.9557 19.069C35.5787 18.5014 34.8594 18.2674 34.2267 18.2674C33.0524 18.2674 32.0037 18.8697 31.748 20.1177C31.696 20.3951 31.4924 20.6681 31.215 20.6811L28.225 20.3604C27.9737 20.3041 27.6963 20.1004 27.7657 19.7147C28.4547 16.092 31.7264 15 34.6557 15C36.1551 15 38.1137 15.3987 39.2967 16.534C40.7961 17.9337 40.6531 19.8014 40.6531 21.8337V26.6351C40.6531 28.0781 41.2511 28.7108 41.8144 29.4908C42.0138 29.7681 42.0571 30.1018 41.8058 30.3098C41.1774 30.8341 40.0594 31.8092 39.4441 32.3552L39.4354 32.3465Z" fill="#221F1F"/>
</svg>
