<svg width="150" height="51" viewBox="0 0 150 51" fill="none" xmlns="http://www.w3.org/2000/svg">
<rect x="0.5" y="1" width="149" height="49" rx="7.5" fill="white"/>
<rect x="0.5" y="1" width="149" height="49" rx="7.5" stroke="#EBEFF6"/>
<path d="M116.607 30.4686C116.528 30.4719 116.452 30.5005 116.391 30.5501C116.329 30.5997 116.285 30.6678 116.265 30.7443C115.402 33.2058 114.237 34.6723 113.277 34.6723C112.726 34.6723 112.503 34.0576 112.503 33.0928C112.503 30.6809 113.947 25.5675 114.675 23.2355C114.755 22.9932 114.802 22.7409 114.813 22.4858C114.813 21.8077 114.443 21.4741 113.525 21.4741C112.536 21.4741 111.472 21.86 110.435 23.6793C110.077 22.0805 108.996 21.3804 107.483 21.3804C105.735 21.3804 104.049 22.5051 102.659 24.3271C101.27 26.1492 99.6271 26.7473 98.4088 26.4524C99.2936 24.2885 99.6216 22.6732 99.6216 21.4714C99.6216 19.5887 98.6927 18.453 97.1876 18.453C94.9025 18.453 93.5849 20.6334 93.5849 22.9268C93.5849 24.6992 94.3898 26.5103 96.1567 27.4061C94.6737 30.758 92.5126 33.7874 91.6912 33.7874C90.6299 33.7874 90.3129 28.5969 90.3791 24.8839C90.4177 22.7531 90.5941 22.6456 90.5941 22.0006C90.5941 21.6312 90.3543 21.3776 89.3895 21.3776C87.143 21.3776 86.4483 23.2796 86.3408 25.4655C86.3072 26.2955 86.1777 27.1187 85.9549 27.9188C85.015 31.2707 83.0799 33.8122 81.8202 33.8122C81.2358 33.8122 81.0759 33.2279 81.0759 32.4616C81.0759 30.0496 82.4266 27.0368 82.4266 24.4677C82.4266 22.5767 81.5997 21.3832 80.0367 21.3832C78.1982 21.3832 75.7642 23.5718 73.4625 27.6735C74.2206 24.5338 74.532 21.4934 72.2882 21.4934C71.802 21.5004 71.3246 21.6243 70.8962 21.8545C70.7522 21.9218 70.6318 22.0309 70.5507 22.1675C70.4695 22.3042 70.4314 22.4622 70.4414 22.6208C70.6564 25.9645 67.7483 34.5262 64.9891 34.5262C64.4874 34.5262 64.2448 33.9749 64.2448 33.1066C64.2448 30.6891 65.6837 25.5896 66.4087 23.2521C66.4947 22.9967 66.5429 22.7302 66.552 22.461C66.552 21.8214 66.1551 21.4934 65.2592 21.4934C64.2751 21.4934 63.2056 21.8683 62.1747 23.6821C61.8136 22.0833 60.7303 21.3832 59.2197 21.3832C56.7389 21.3832 53.9824 24.0046 52.753 27.4227C51.1239 31.9847 47.8409 36.3923 43.4195 36.3923C39.4088 36.3923 37.2919 33.0542 37.2919 27.781C37.2919 20.1648 42.882 13.9433 47.0278 13.9433C49.0097 13.9433 49.9579 15.2058 49.9579 17.1436C49.9579 19.4894 48.6486 20.5782 48.6486 21.4714C48.6486 21.747 48.8746 22.0227 49.3267 22.0227C51.1294 22.0227 53.2492 19.9057 53.2492 17.0168C53.2492 14.128 50.8979 12 46.7494 12C39.8967 12 33 18.8913 33 27.7314C33 34.7605 36.4677 39 42.4658 39C46.5564 39 50.1316 35.819 52.0584 32.1087C52.2761 35.185 53.6737 36.7948 55.8044 36.7948C57.6982 36.7948 59.2308 35.6674 60.4023 33.6827C60.8516 35.7583 62.0562 36.7727 63.6025 36.7727C65.3832 36.7727 66.8745 35.6453 68.2886 33.5476C68.2665 35.2015 68.6414 36.7424 70.0693 36.7424C70.7419 36.7424 71.5468 36.5853 71.6901 35.9982C73.1924 29.785 76.9054 24.713 78.03 24.713C78.3663 24.713 78.46 25.0383 78.46 25.4214C78.46 27.1084 77.2692 30.5706 77.2692 32.7786C77.2692 35.1657 78.2836 36.7452 80.3813 36.7452C82.705 36.7452 85.0673 33.9005 86.6413 29.7409C87.1347 33.6276 88.1987 36.7617 89.8664 36.7617C91.9117 36.7617 95.5448 32.456 97.7472 27.8968C98.9423 28.0727 100.16 27.7869 101.151 27.0974C100.606 28.4593 100.321 29.9113 100.311 31.3782C100.311 35.6095 102.331 36.7948 104.071 36.7948C105.962 36.7948 107.494 35.6674 108.668 33.6827C109.054 35.4717 110.047 36.7672 111.863 36.7672C114.708 36.7672 117.18 33.8591 117.18 31.472C117.191 30.8435 116.921 30.4686 116.607 30.4686ZM57.5438 34.4518C56.3943 34.4518 55.945 33.294 55.945 31.5684C55.945 28.5721 57.9959 23.5746 60.1625 23.5746C61.1107 23.5746 61.4663 24.6772 61.4663 26.0554C61.4663 29.0903 59.5174 34.4518 57.5438 34.4518ZM96.9065 25.5069C96.2682 24.6715 95.9381 23.6413 95.972 22.5905C95.972 21.3694 96.4186 20.3384 96.9533 20.3384C97.4881 20.3384 97.6535 20.8649 97.6535 21.5982C97.6507 22.8221 97.2124 24.611 96.9065 25.5069ZM105.818 34.4518C104.669 34.4518 104.219 33.1204 104.219 31.5684C104.219 28.6769 106.27 23.5746 108.453 23.5746C109.402 23.5746 109.738 24.6772 109.738 26.0554C109.738 29.0903 107.822 34.4518 105.818 34.4518Z" fill="url(#paint0_linear_8_541)"/>
<path d="M116.607 30.4686C116.528 30.4719 116.452 30.5005 116.391 30.5501C116.329 30.5997 116.285 30.6678 116.265 30.7443C115.402 33.2058 114.237 34.6723 113.277 34.6723C112.726 34.6723 112.503 34.0576 112.503 33.0928C112.503 30.6809 113.947 25.5675 114.675 23.2355C114.755 22.9932 114.802 22.7409 114.813 22.4858C114.813 21.8077 114.443 21.4741 113.525 21.4741C112.536 21.4741 111.472 21.86 110.435 23.6793C110.077 22.0805 108.996 21.3804 107.483 21.3804C105.735 21.3804 104.049 22.5051 102.659 24.3271C101.27 26.1492 99.6271 26.7473 98.4088 26.4524C99.2936 24.2885 99.6216 22.6732 99.6216 21.4714C99.6216 19.5887 98.6927 18.453 97.1876 18.453C94.9025 18.453 93.5849 20.6334 93.5849 22.9268C93.5849 24.6992 94.3898 26.5103 96.1567 27.4061C94.6737 30.758 92.5126 33.7874 91.6912 33.7874C90.6299 33.7874 90.3129 28.5969 90.3791 24.8839C90.4177 22.7531 90.5941 22.6456 90.5941 22.0006C90.5941 21.6312 90.3543 21.3776 89.3895 21.3776C87.143 21.3776 86.4483 23.2796 86.3408 25.4655C86.3072 26.2955 86.1777 27.1187 85.9549 27.9188C85.015 31.2707 83.0799 33.8122 81.8202 33.8122C81.2358 33.8122 81.0759 33.2279 81.0759 32.4616C81.0759 30.0496 82.4266 27.0368 82.4266 24.4677C82.4266 22.5767 81.5997 21.3832 80.0367 21.3832C78.1982 21.3832 75.7642 23.5718 73.4625 27.6735C74.2206 24.5338 74.532 21.4934 72.2882 21.4934C71.802 21.5004 71.3246 21.6243 70.8962 21.8545C70.7522 21.9218 70.6318 22.0309 70.5507 22.1675C70.4695 22.3042 70.4314 22.4622 70.4414 22.6208C70.6564 25.9645 67.7483 34.5262 64.9891 34.5262C64.4874 34.5262 64.2448 33.9749 64.2448 33.1066C64.2448 30.6891 65.6837 25.5896 66.4087 23.2521C66.4947 22.9967 66.5429 22.7302 66.552 22.461C66.552 21.8214 66.1551 21.4934 65.2592 21.4934C64.2751 21.4934 63.2056 21.8683 62.1747 23.6821C61.8136 22.0833 60.7303 21.3832 59.2197 21.3832C56.7389 21.3832 53.9824 24.0046 52.753 27.4227C51.1239 31.9847 47.8409 36.3923 43.4195 36.3923C39.4088 36.3923 37.2919 33.0542 37.2919 27.781C37.2919 20.1648 42.882 13.9433 47.0278 13.9433C49.0097 13.9433 49.9579 15.2058 49.9579 17.1436C49.9579 19.4894 48.6486 20.5782 48.6486 21.4714C48.6486 21.747 48.8746 22.0227 49.3267 22.0227C51.1294 22.0227 53.2492 19.9057 53.2492 17.0168C53.2492 14.128 50.8979 12 46.7494 12C39.8967 12 33 18.8913 33 27.7314C33 34.7605 36.4677 39 42.4658 39C46.5564 39 50.1316 35.819 52.0584 32.1087C52.2761 35.185 53.6737 36.7948 55.8044 36.7948C57.6982 36.7948 59.2308 35.6674 60.4023 33.6827C60.8516 35.7583 62.0562 36.7727 63.6025 36.7727C65.3832 36.7727 66.8745 35.6453 68.2886 33.5476C68.2665 35.2015 68.6414 36.7424 70.0693 36.7424C70.7419 36.7424 71.5468 36.5853 71.6901 35.9982C73.1924 29.785 76.9054 24.713 78.03 24.713C78.3663 24.713 78.46 25.0383 78.46 25.4214C78.46 27.1084 77.2692 30.5706 77.2692 32.7786C77.2692 35.1657 78.2836 36.7452 80.3813 36.7452C82.705 36.7452 85.0673 33.9005 86.6413 29.7409C87.1347 33.6276 88.1987 36.7617 89.8664 36.7617C91.9117 36.7617 95.5448 32.456 97.7472 27.8968C98.9423 28.0727 100.16 27.7869 101.151 27.0974C100.606 28.4593 100.321 29.9113 100.311 31.3782C100.311 35.6095 102.331 36.7948 104.071 36.7948C105.962 36.7948 107.494 35.6674 108.668 33.6827C109.054 35.4717 110.047 36.7672 111.863 36.7672C114.708 36.7672 117.18 33.8591 117.18 31.472C117.191 30.8435 116.921 30.4686 116.607 30.4686ZM57.5438 34.4518C56.3943 34.4518 55.945 33.294 55.945 31.5684C55.945 28.5721 57.9959 23.5746 60.1625 23.5746C61.1107 23.5746 61.4663 24.6772 61.4663 26.0554C61.4663 29.0903 59.5174 34.4518 57.5438 34.4518ZM96.9065 25.5069C96.2682 24.6715 95.9381 23.6413 95.972 22.5905C95.972 21.3694 96.4186 20.3384 96.9533 20.3384C97.4881 20.3384 97.6535 20.8649 97.6535 21.5982C97.6507 22.8221 97.2124 24.611 96.9065 25.5069ZM105.818 34.4518C104.669 34.4518 104.219 33.1204 104.219 31.5684C104.219 28.6769 106.27 23.5746 108.453 23.5746C109.402 23.5746 109.738 24.6772 109.738 26.0554C109.738 29.0903 107.822 34.4518 105.818 34.4518Z" fill="url(#paint1_radial_8_541)"/>
<path d="M116.607 30.4686C116.528 30.4719 116.452 30.5005 116.391 30.5501C116.329 30.5997 116.285 30.6678 116.265 30.7443C115.402 33.2058 114.237 34.6723 113.277 34.6723C112.726 34.6723 112.503 34.0576 112.503 33.0928C112.503 30.6809 113.947 25.5675 114.675 23.2355C114.755 22.9932 114.802 22.7409 114.813 22.4858C114.813 21.8077 114.443 21.4741 113.525 21.4741C112.536 21.4741 111.472 21.86 110.435 23.6793C110.077 22.0805 108.996 21.3804 107.483 21.3804C105.735 21.3804 104.049 22.5051 102.659 24.3271C101.27 26.1492 99.6271 26.7473 98.4088 26.4524C99.2936 24.2885 99.6216 22.6732 99.6216 21.4714C99.6216 19.5887 98.6927 18.453 97.1876 18.453C94.9025 18.453 93.5849 20.6334 93.5849 22.9268C93.5849 24.6992 94.3898 26.5103 96.1567 27.4061C94.6737 30.758 92.5126 33.7874 91.6912 33.7874C90.6299 33.7874 90.3129 28.5969 90.3791 24.8839C90.4177 22.7531 90.5941 22.6456 90.5941 22.0006C90.5941 21.6312 90.3543 21.3776 89.3895 21.3776C87.143 21.3776 86.4483 23.2796 86.3408 25.4655C86.3072 26.2955 86.1777 27.1187 85.9549 27.9188C85.015 31.2707 83.0799 33.8122 81.8202 33.8122C81.2358 33.8122 81.0759 33.2279 81.0759 32.4616C81.0759 30.0496 82.4266 27.0368 82.4266 24.4677C82.4266 22.5767 81.5997 21.3832 80.0367 21.3832C78.1982 21.3832 75.7642 23.5718 73.4625 27.6735C74.2206 24.5338 74.532 21.4934 72.2882 21.4934C71.802 21.5004 71.3246 21.6243 70.8962 21.8545C70.7522 21.9218 70.6318 22.0309 70.5507 22.1675C70.4695 22.3042 70.4314 22.4622 70.4414 22.6208C70.6564 25.9645 67.7483 34.5262 64.9891 34.5262C64.4874 34.5262 64.2448 33.9749 64.2448 33.1066C64.2448 30.6891 65.6837 25.5896 66.4087 23.2521C66.4947 22.9967 66.5429 22.7302 66.552 22.461C66.552 21.8214 66.1551 21.4934 65.2592 21.4934C64.2751 21.4934 63.2056 21.8683 62.1747 23.6821C61.8136 22.0833 60.7303 21.3832 59.2197 21.3832C56.7389 21.3832 53.9824 24.0046 52.753 27.4227C51.1239 31.9847 47.8409 36.3923 43.4195 36.3923C39.4088 36.3923 37.2919 33.0542 37.2919 27.781C37.2919 20.1648 42.882 13.9433 47.0278 13.9433C49.0097 13.9433 49.9579 15.2058 49.9579 17.1436C49.9579 19.4894 48.6486 20.5782 48.6486 21.4714C48.6486 21.747 48.8746 22.0227 49.3267 22.0227C51.1294 22.0227 53.2492 19.9057 53.2492 17.0168C53.2492 14.128 50.8979 12 46.7494 12C39.8967 12 33 18.8913 33 27.7314C33 34.7605 36.4677 39 42.4658 39C46.5564 39 50.1316 35.819 52.0584 32.1087C52.2761 35.185 53.6737 36.7948 55.8044 36.7948C57.6982 36.7948 59.2308 35.6674 60.4023 33.6827C60.8516 35.7583 62.0562 36.7727 63.6025 36.7727C65.3832 36.7727 66.8745 35.6453 68.2886 33.5476C68.2665 35.2015 68.6414 36.7424 70.0693 36.7424C70.7419 36.7424 71.5468 36.5853 71.6901 35.9982C73.1924 29.785 76.9054 24.713 78.03 24.713C78.3663 24.713 78.46 25.0383 78.46 25.4214C78.46 27.1084 77.2692 30.5706 77.2692 32.7786C77.2692 35.1657 78.2836 36.7452 80.3813 36.7452C82.705 36.7452 85.0673 33.9005 86.6413 29.7409C87.1347 33.6276 88.1987 36.7617 89.8664 36.7617C91.9117 36.7617 95.5448 32.456 97.7472 27.8968C98.9423 28.0727 100.16 27.7869 101.151 27.0974C100.606 28.4593 100.321 29.9113 100.311 31.3782C100.311 35.6095 102.331 36.7948 104.071 36.7948C105.962 36.7948 107.494 35.6674 108.668 33.6827C109.054 35.4717 110.047 36.7672 111.863 36.7672C114.708 36.7672 117.18 33.8591 117.18 31.472C117.191 30.8435 116.921 30.4686 116.607 30.4686ZM57.5438 34.4518C56.3943 34.4518 55.945 33.294 55.945 31.5684C55.945 28.5721 57.9959 23.5746 60.1625 23.5746C61.1107 23.5746 61.4663 24.6772 61.4663 26.0554C61.4663 29.0903 59.5174 34.4518 57.5438 34.4518ZM96.9065 25.5069C96.2682 24.6715 95.9381 23.6413 95.972 22.5905C95.972 21.3694 96.4186 20.3384 96.9533 20.3384C97.4881 20.3384 97.6535 20.8649 97.6535 21.5982C97.6507 22.8221 97.2124 24.611 96.9065 25.5069ZM105.818 34.4518C104.669 34.4518 104.219 33.1204 104.219 31.5684C104.219 28.6769 106.27 23.5746 108.453 23.5746C109.402 23.5746 109.738 24.6772 109.738 26.0554C109.738 29.0903 107.822 34.4518 105.818 34.4518Z" fill="url(#paint2_radial_8_541)"/>
<path d="M116.607 30.4686C116.528 30.4719 116.452 30.5005 116.391 30.5501C116.329 30.5997 116.285 30.6678 116.265 30.7443C115.402 33.2058 114.237 34.6723 113.277 34.6723C112.726 34.6723 112.503 34.0576 112.503 33.0928C112.503 30.6809 113.947 25.5675 114.675 23.2355C114.755 22.9932 114.802 22.7409 114.813 22.4858C114.813 21.8077 114.443 21.4741 113.525 21.4741C112.536 21.4741 111.472 21.86 110.435 23.6793C110.077 22.0805 108.996 21.3804 107.483 21.3804C105.735 21.3804 104.049 22.5051 102.659 24.3271C101.27 26.1492 99.6271 26.7473 98.4088 26.4524C99.2936 24.2885 99.6216 22.6732 99.6216 21.4714C99.6216 19.5887 98.6927 18.453 97.1876 18.453C94.9025 18.453 93.5849 20.6334 93.5849 22.9268C93.5849 24.6992 94.3898 26.5103 96.1567 27.4061C94.6737 30.758 92.5126 33.7874 91.6912 33.7874C90.6299 33.7874 90.3129 28.5969 90.3791 24.8839C90.4177 22.7531 90.5941 22.6456 90.5941 22.0006C90.5941 21.6312 90.3543 21.3776 89.3895 21.3776C87.143 21.3776 86.4483 23.2796 86.3408 25.4655C86.3072 26.2955 86.1777 27.1187 85.9549 27.9188C85.015 31.2707 83.0799 33.8122 81.8202 33.8122C81.2358 33.8122 81.0759 33.2279 81.0759 32.4616C81.0759 30.0496 82.4266 27.0368 82.4266 24.4677C82.4266 22.5767 81.5997 21.3832 80.0367 21.3832C78.1982 21.3832 75.7642 23.5718 73.4625 27.6735C74.2206 24.5338 74.532 21.4934 72.2882 21.4934C71.802 21.5004 71.3246 21.6243 70.8962 21.8545C70.7522 21.9218 70.6318 22.0309 70.5507 22.1675C70.4695 22.3042 70.4314 22.4622 70.4414 22.6208C70.6564 25.9645 67.7483 34.5262 64.9891 34.5262C64.4874 34.5262 64.2448 33.9749 64.2448 33.1066C64.2448 30.6891 65.6837 25.5896 66.4087 23.2521C66.4947 22.9967 66.5429 22.7302 66.552 22.461C66.552 21.8214 66.1551 21.4934 65.2592 21.4934C64.2751 21.4934 63.2056 21.8683 62.1747 23.6821C61.8136 22.0833 60.7303 21.3832 59.2197 21.3832C56.7389 21.3832 53.9824 24.0046 52.753 27.4227C51.1239 31.9847 47.8409 36.3923 43.4195 36.3923C39.4088 36.3923 37.2919 33.0542 37.2919 27.781C37.2919 20.1648 42.882 13.9433 47.0278 13.9433C49.0097 13.9433 49.9579 15.2058 49.9579 17.1436C49.9579 19.4894 48.6486 20.5782 48.6486 21.4714C48.6486 21.747 48.8746 22.0227 49.3267 22.0227C51.1294 22.0227 53.2492 19.9057 53.2492 17.0168C53.2492 14.128 50.8979 12 46.7494 12C39.8967 12 33 18.8913 33 27.7314C33 34.7605 36.4677 39 42.4658 39C46.5564 39 50.1316 35.819 52.0584 32.1087C52.2761 35.185 53.6737 36.7948 55.8044 36.7948C57.6982 36.7948 59.2308 35.6674 60.4023 33.6827C60.8516 35.7583 62.0562 36.7727 63.6025 36.7727C65.3832 36.7727 66.8745 35.6453 68.2886 33.5476C68.2665 35.2015 68.6414 36.7424 70.0693 36.7424C70.7419 36.7424 71.5468 36.5853 71.6901 35.9982C73.1924 29.785 76.9054 24.713 78.03 24.713C78.3663 24.713 78.46 25.0383 78.46 25.4214C78.46 27.1084 77.2692 30.5706 77.2692 32.7786C77.2692 35.1657 78.2836 36.7452 80.3813 36.7452C82.705 36.7452 85.0673 33.9005 86.6413 29.7409C87.1347 33.6276 88.1987 36.7617 89.8664 36.7617C91.9117 36.7617 95.5448 32.456 97.7472 27.8968C98.9423 28.0727 100.16 27.7869 101.151 27.0974C100.606 28.4593 100.321 29.9113 100.311 31.3782C100.311 35.6095 102.331 36.7948 104.071 36.7948C105.962 36.7948 107.494 35.6674 108.668 33.6827C109.054 35.4717 110.047 36.7672 111.863 36.7672C114.708 36.7672 117.18 33.8591 117.18 31.472C117.191 30.8435 116.921 30.4686 116.607 30.4686ZM57.5438 34.4518C56.3943 34.4518 55.945 33.294 55.945 31.5684C55.945 28.5721 57.9959 23.5746 60.1625 23.5746C61.1107 23.5746 61.4663 24.6772 61.4663 26.0554C61.4663 29.0903 59.5174 34.4518 57.5438 34.4518ZM96.9065 25.5069C96.2682 24.6715 95.9381 23.6413 95.972 22.5905C95.972 21.3694 96.4186 20.3384 96.9533 20.3384C97.4881 20.3384 97.6535 20.8649 97.6535 21.5982C97.6507 22.8221 97.2124 24.611 96.9065 25.5069ZM105.818 34.4518C104.669 34.4518 104.219 33.1204 104.219 31.5684C104.219 28.6769 106.27 23.5746 108.453 23.5746C109.402 23.5746 109.738 24.6772 109.738 26.0554C109.738 29.0903 107.822 34.4518 105.818 34.4518Z" fill="url(#paint3_radial_8_541)"/>
<path d="M116.607 30.4686C116.528 30.4719 116.452 30.5005 116.391 30.5501C116.329 30.5997 116.285 30.6678 116.265 30.7443C115.402 33.2058 114.237 34.6723 113.277 34.6723C112.726 34.6723 112.503 34.0576 112.503 33.0928C112.503 30.6809 113.947 25.5675 114.675 23.2355C114.755 22.9932 114.802 22.7409 114.813 22.4858C114.813 21.8077 114.443 21.4741 113.525 21.4741C112.536 21.4741 111.472 21.86 110.435 23.6793C110.077 22.0805 108.996 21.3804 107.483 21.3804C105.735 21.3804 104.049 22.5051 102.659 24.3271C101.27 26.1492 99.6271 26.7473 98.4088 26.4524C99.2936 24.2885 99.6216 22.6732 99.6216 21.4714C99.6216 19.5887 98.6927 18.453 97.1876 18.453C94.9025 18.453 93.5849 20.6334 93.5849 22.9268C93.5849 24.6992 94.3898 26.5103 96.1567 27.4061C94.6737 30.758 92.5126 33.7874 91.6912 33.7874C90.6299 33.7874 90.3129 28.5969 90.3791 24.8839C90.4177 22.7531 90.5941 22.6456 90.5941 22.0006C90.5941 21.6312 90.3543 21.3776 89.3895 21.3776C87.143 21.3776 86.4483 23.2796 86.3408 25.4655C86.3072 26.2955 86.1777 27.1187 85.9549 27.9188C85.015 31.2707 83.0799 33.8122 81.8202 33.8122C81.2358 33.8122 81.0759 33.2279 81.0759 32.4616C81.0759 30.0496 82.4266 27.0368 82.4266 24.4677C82.4266 22.5767 81.5997 21.3832 80.0367 21.3832C78.1982 21.3832 75.7642 23.5718 73.4625 27.6735C74.2206 24.5338 74.532 21.4934 72.2882 21.4934C71.802 21.5004 71.3246 21.6243 70.8962 21.8545C70.7522 21.9218 70.6318 22.0309 70.5507 22.1675C70.4695 22.3042 70.4314 22.4622 70.4414 22.6208C70.6564 25.9645 67.7483 34.5262 64.9891 34.5262C64.4874 34.5262 64.2448 33.9749 64.2448 33.1066C64.2448 30.6891 65.6837 25.5896 66.4087 23.2521C66.4947 22.9967 66.5429 22.7302 66.552 22.461C66.552 21.8214 66.1551 21.4934 65.2592 21.4934C64.2751 21.4934 63.2056 21.8683 62.1747 23.6821C61.8136 22.0833 60.7303 21.3832 59.2197 21.3832C56.7389 21.3832 53.9824 24.0046 52.753 27.4227C51.1239 31.9847 47.8409 36.3923 43.4195 36.3923C39.4088 36.3923 37.2919 33.0542 37.2919 27.781C37.2919 20.1648 42.882 13.9433 47.0278 13.9433C49.0097 13.9433 49.9579 15.2058 49.9579 17.1436C49.9579 19.4894 48.6486 20.5782 48.6486 21.4714C48.6486 21.747 48.8746 22.0227 49.3267 22.0227C51.1294 22.0227 53.2492 19.9057 53.2492 17.0168C53.2492 14.128 50.8979 12 46.7494 12C39.8967 12 33 18.8913 33 27.7314C33 34.7605 36.4677 39 42.4658 39C46.5564 39 50.1316 35.819 52.0584 32.1087C52.2761 35.185 53.6737 36.7948 55.8044 36.7948C57.6982 36.7948 59.2308 35.6674 60.4023 33.6827C60.8516 35.7583 62.0562 36.7727 63.6025 36.7727C65.3832 36.7727 66.8745 35.6453 68.2886 33.5476C68.2665 35.2015 68.6414 36.7424 70.0693 36.7424C70.7419 36.7424 71.5468 36.5853 71.6901 35.9982C73.1924 29.785 76.9054 24.713 78.03 24.713C78.3663 24.713 78.46 25.0383 78.46 25.4214C78.46 27.1084 77.2692 30.5706 77.2692 32.7786C77.2692 35.1657 78.2836 36.7452 80.3813 36.7452C82.705 36.7452 85.0673 33.9005 86.6413 29.7409C87.1347 33.6276 88.1987 36.7617 89.8664 36.7617C91.9117 36.7617 95.5448 32.456 97.7472 27.8968C98.9423 28.0727 100.16 27.7869 101.151 27.0974C100.606 28.4593 100.321 29.9113 100.311 31.3782C100.311 35.6095 102.331 36.7948 104.071 36.7948C105.962 36.7948 107.494 35.6674 108.668 33.6827C109.054 35.4717 110.047 36.7672 111.863 36.7672C114.708 36.7672 117.18 33.8591 117.18 31.472C117.191 30.8435 116.921 30.4686 116.607 30.4686ZM57.5438 34.4518C56.3943 34.4518 55.945 33.294 55.945 31.5684C55.945 28.5721 57.9959 23.5746 60.1625 23.5746C61.1107 23.5746 61.4663 24.6772 61.4663 26.0554C61.4663 29.0903 59.5174 34.4518 57.5438 34.4518ZM96.9065 25.5069C96.2682 24.6715 95.9381 23.6413 95.972 22.5905C95.972 21.3694 96.4186 20.3384 96.9533 20.3384C97.4881 20.3384 97.6535 20.8649 97.6535 21.5982C97.6507 22.8221 97.2124 24.611 96.9065 25.5069ZM105.818 34.4518C104.669 34.4518 104.219 33.1204 104.219 31.5684C104.219 28.6769 106.27 23.5746 108.453 23.5746C109.402 23.5746 109.738 24.6772 109.738 26.0554C109.738 29.0903 107.822 34.4518 105.818 34.4518Z" fill="url(#paint4_radial_8_541)"/>
<path d="M116.607 30.4686C116.528 30.4719 116.452 30.5005 116.391 30.5501C116.329 30.5997 116.285 30.6678 116.265 30.7443C115.402 33.2058 114.237 34.6723 113.277 34.6723C112.726 34.6723 112.503 34.0576 112.503 33.0928C112.503 30.6809 113.947 25.5675 114.675 23.2355C114.755 22.9932 114.802 22.7409 114.813 22.4858C114.813 21.8077 114.443 21.4741 113.525 21.4741C112.536 21.4741 111.472 21.86 110.435 23.6793C110.077 22.0805 108.996 21.3804 107.483 21.3804C105.735 21.3804 104.049 22.5051 102.659 24.3271C101.27 26.1492 99.6271 26.7473 98.4088 26.4524C99.2936 24.2885 99.6216 22.6732 99.6216 21.4714C99.6216 19.5887 98.6927 18.453 97.1876 18.453C94.9025 18.453 93.5849 20.6334 93.5849 22.9268C93.5849 24.6992 94.3898 26.5103 96.1567 27.4061C94.6737 30.758 92.5126 33.7874 91.6912 33.7874C90.6299 33.7874 90.3129 28.5969 90.3791 24.8839C90.4177 22.7531 90.5941 22.6456 90.5941 22.0006C90.5941 21.6312 90.3543 21.3776 89.3895 21.3776C87.143 21.3776 86.4483 23.2796 86.3408 25.4655C86.3072 26.2955 86.1777 27.1187 85.9549 27.9188C85.015 31.2707 83.0799 33.8122 81.8202 33.8122C81.2358 33.8122 81.0759 33.2279 81.0759 32.4616C81.0759 30.0496 82.4266 27.0368 82.4266 24.4677C82.4266 22.5767 81.5997 21.3832 80.0367 21.3832C78.1982 21.3832 75.7642 23.5718 73.4625 27.6735C74.2206 24.5338 74.532 21.4934 72.2882 21.4934C71.802 21.5004 71.3246 21.6243 70.8962 21.8545C70.7522 21.9218 70.6318 22.0309 70.5507 22.1675C70.4695 22.3042 70.4314 22.4622 70.4414 22.6208C70.6564 25.9645 67.7483 34.5262 64.9891 34.5262C64.4874 34.5262 64.2448 33.9749 64.2448 33.1066C64.2448 30.6891 65.6837 25.5896 66.4087 23.2521C66.4947 22.9967 66.5429 22.7302 66.552 22.461C66.552 21.8214 66.1551 21.4934 65.2592 21.4934C64.2751 21.4934 63.2056 21.8683 62.1747 23.6821C61.8136 22.0833 60.7303 21.3832 59.2197 21.3832C56.7389 21.3832 53.9824 24.0046 52.753 27.4227C51.1239 31.9847 47.8409 36.3923 43.4195 36.3923C39.4088 36.3923 37.2919 33.0542 37.2919 27.781C37.2919 20.1648 42.882 13.9433 47.0278 13.9433C49.0097 13.9433 49.9579 15.2058 49.9579 17.1436C49.9579 19.4894 48.6486 20.5782 48.6486 21.4714C48.6486 21.747 48.8746 22.0227 49.3267 22.0227C51.1294 22.0227 53.2492 19.9057 53.2492 17.0168C53.2492 14.128 50.8979 12 46.7494 12C39.8967 12 33 18.8913 33 27.7314C33 34.7605 36.4677 39 42.4658 39C46.5564 39 50.1316 35.819 52.0584 32.1087C52.2761 35.185 53.6737 36.7948 55.8044 36.7948C57.6982 36.7948 59.2308 35.6674 60.4023 33.6827C60.8516 35.7583 62.0562 36.7727 63.6025 36.7727C65.3832 36.7727 66.8745 35.6453 68.2886 33.5476C68.2665 35.2015 68.6414 36.7424 70.0693 36.7424C70.7419 36.7424 71.5468 36.5853 71.6901 35.9982C73.1924 29.785 76.9054 24.713 78.03 24.713C78.3663 24.713 78.46 25.0383 78.46 25.4214C78.46 27.1084 77.2692 30.5706 77.2692 32.7786C77.2692 35.1657 78.2836 36.7452 80.3813 36.7452C82.705 36.7452 85.0673 33.9005 86.6413 29.7409C87.1347 33.6276 88.1987 36.7617 89.8664 36.7617C91.9117 36.7617 95.5448 32.456 97.7472 27.8968C98.9423 28.0727 100.16 27.7869 101.151 27.0974C100.606 28.4593 100.321 29.9113 100.311 31.3782C100.311 35.6095 102.331 36.7948 104.071 36.7948C105.962 36.7948 107.494 35.6674 108.668 33.6827C109.054 35.4717 110.047 36.7672 111.863 36.7672C114.708 36.7672 117.18 33.8591 117.18 31.472C117.191 30.8435 116.921 30.4686 116.607 30.4686ZM57.5438 34.4518C56.3943 34.4518 55.945 33.294 55.945 31.5684C55.945 28.5721 57.9959 23.5746 60.1625 23.5746C61.1107 23.5746 61.4663 24.6772 61.4663 26.0554C61.4663 29.0903 59.5174 34.4518 57.5438 34.4518ZM96.9065 25.5069C96.2682 24.6715 95.9381 23.6413 95.972 22.5905C95.972 21.3694 96.4186 20.3384 96.9533 20.3384C97.4881 20.3384 97.6535 20.8649 97.6535 21.5982C97.6507 22.8221 97.2124 24.611 96.9065 25.5069ZM105.818 34.4518C104.669 34.4518 104.219 33.1204 104.219 31.5684C104.219 28.6769 106.27 23.5746 108.453 23.5746C109.402 23.5746 109.738 24.6772 109.738 26.0554C109.738 29.0903 107.822 34.4518 105.818 34.4518Z" fill="url(#paint5_radial_8_541)"/>
<defs>
<linearGradient id="paint0_linear_8_541" x1="116.276" y1="39.4741" x2="46.2311" y2="22.803" gradientUnits="userSpaceOnUse">
<stop stop-color="#7D2AE7"/>
<stop offset="0.77" stop-color="#7D2AE7"/>
<stop offset="1" stop-color="#7D2AE7" stop-opacity="0"/>
</linearGradient>
<radialGradient id="paint1_radial_8_541" cx="0" cy="0" r="1" gradientUnits="userSpaceOnUse" gradientTransform="translate(76.1925 40.174) rotate(-45.8071) scale(24.9125 16.5566)">
<stop stop-color="#6420FF"/>
<stop offset="1" stop-color="#6420FF" stop-opacity="0"/>
</radialGradient>
<radialGradient id="paint2_radial_8_541" cx="0" cy="0" r="1" gradientUnits="userSpaceOnUse" gradientTransform="translate(35.7286 31.178) rotate(5.08829) scale(48.4848 38.6436)">
<stop offset="0.25" stop-color="#00C4CC"/>
<stop offset="1" stop-color="#00C4CC" stop-opacity="0"/>
</radialGradient>
<radialGradient id="paint3_radial_8_541" cx="0" cy="0" r="1" gradientUnits="userSpaceOnUse" gradientTransform="translate(67.4209 38.1019) rotate(-38.8495) scale(31.2442 21.364)">
<stop stop-color="#6420FF"/>
<stop offset="1" stop-color="#6420FF" stop-opacity="0"/>
</radialGradient>
<radialGradient id="paint4_radial_8_541" cx="0" cy="0" r="1" gradientUnits="userSpaceOnUse" gradientTransform="translate(37.1127 44.1326) rotate(-34.2675) scale(36.4233 24.9051)">
<stop stop-color="#6420FF"/>
<stop offset="1" stop-color="#6420FF" stop-opacity="0"/>
</radialGradient>
<radialGradient id="paint5_radial_8_541" cx="0" cy="0" r="1" gradientUnits="userSpaceOnUse" gradientTransform="translate(40.8462 15.6073) rotate(12.4718) scale(71.9893 88.2924)">
<stop stop-color="#00C4CC"/>
<stop offset="1" stop-color="#00C4CC" stop-opacity="0"/>
</radialGradient>
</defs>
</svg>
