<svg width="81" height="80" viewBox="0 0 81 80" fill="none" xmlns="http://www.w3.org/2000/svg">
<g clip-path="url(#clip0_8_992)">
<path opacity="0.2" d="M65.5 27.5H15.5C14.837 27.5 14.2011 27.7634 13.7322 28.2322C13.2634 28.7011 13 29.337 13 30V65C13 65.663 13.2634 66.2989 13.7322 66.7678C14.2011 67.2366 14.837 67.5 15.5 67.5H65.5C66.163 67.5 66.7989 67.2366 67.2678 66.7678C67.7366 66.2989 68 65.663 68 65V30C68 29.337 67.7366 28.7011 67.2678 28.2322C66.7989 27.7634 66.163 27.5 65.5 27.5ZM40.5 50C39.2639 50 38.0555 49.6334 37.0277 48.9467C35.9999 48.2599 35.1988 47.2838 34.7258 46.1418C34.2527 44.9997 34.1289 43.7431 34.3701 42.5307C34.6112 41.3183 35.2065 40.2047 36.0806 39.3306C36.9547 38.4565 38.0683 37.8612 39.2807 37.6201C40.4931 37.3789 41.7497 37.5027 42.8918 37.9758C44.0338 38.4488 45.0099 39.2499 45.6967 40.2777C46.3834 41.3055 46.75 42.5139 46.75 43.75C46.75 45.4076 46.0915 46.9973 44.9194 48.1694C43.7473 49.3415 42.1576 50 40.5 50Z" fill="#1A2434"/>
<path d="M65.5 27.5H15.5C14.1193 27.5 13 28.6193 13 30V65C13 66.3807 14.1193 67.5 15.5 67.5H65.5C66.8807 67.5 68 66.3807 68 65V30C68 28.6193 66.8807 27.5 65.5 27.5Z" stroke="#1A2434" stroke-width="2" stroke-linecap="round" stroke-linejoin="round"/>
<path d="M28 27.5V17.5C28 14.1848 29.317 11.0054 31.6612 8.66117C34.0054 6.31696 37.1848 5 40.5 5C46.5469 5 51.8406 9.29375 53 15" stroke="#1A2434" stroke-width="2" stroke-linecap="round" stroke-linejoin="round"/>
<path d="M40.5 50C43.9518 50 46.75 47.2018 46.75 43.75C46.75 40.2982 43.9518 37.5 40.5 37.5C37.0482 37.5 34.25 40.2982 34.25 43.75C34.25 47.2018 37.0482 50 40.5 50Z" stroke="#1A2434" stroke-width="2" stroke-linecap="round" stroke-linejoin="round"/>
<path d="M40.5 50V57.5" stroke="#1A2434" stroke-width="2" stroke-linecap="round" stroke-linejoin="round"/>
</g>
<defs>
<clipPath id="clip0_8_992">
<rect width="80" height="80" fill="white" transform="translate(0.5)"/>
</clipPath>
</defs>
</svg>
