<svg width="81" height="80" viewBox="0 0 81 80" fill="none" xmlns="http://www.w3.org/2000/svg">
<g clip-path="url(#clip0_8_1008)">
<path opacity="0.2" d="M67.75 15H12.75C12.087 15 11.4511 15.2634 10.9822 15.7322C10.5134 16.2011 10.25 16.837 10.25 17.5V57.5C10.25 58.163 10.5134 58.7989 10.9822 59.2678C11.4511 59.7366 12.087 60 12.75 60H50.25V51.1875C47.2841 48.5353 45.4933 44.8136 45.2715 40.8411C45.0497 36.8685 46.415 32.9706 49.0672 30.0047C51.7194 27.0388 55.4411 25.248 59.4136 25.0262C63.3862 24.8044 67.2841 26.1697 70.25 28.8219V17.5C70.25 16.837 69.9866 16.2011 69.5178 15.7322C69.0489 15.2634 68.413 15 67.75 15Z" fill="#1A2434"/>
<path d="M60.25 55C68.5343 55 75.25 48.2843 75.25 40C75.25 31.7157 68.5343 25 60.25 25C51.9657 25 45.25 31.7157 45.25 40C45.25 48.2843 51.9657 55 60.25 55Z" stroke="#1A2434" stroke-width="2" stroke-linecap="round" stroke-linejoin="round"/>
<path d="M70.25 51.1906V70L60.25 65L50.25 70V51.1875" stroke="#1A2434" stroke-width="2" stroke-linecap="round" stroke-linejoin="round"/>
<path d="M40.25 60H12.75C12.087 60 11.4511 59.7366 10.9822 59.2678C10.5134 58.7989 10.25 58.163 10.25 57.5V17.5C10.25 16.837 10.5134 16.2011 10.9822 15.7322C11.4511 15.2634 12.087 15 12.75 15H67.75C68.413 15 69.0489 15.2634 69.5178 15.7322C69.9866 16.2011 70.25 16.837 70.25 17.5" stroke="#1A2434" stroke-width="2" stroke-linecap="round" stroke-linejoin="round"/>
<path d="M22.75 42.5H35.25" stroke="#1A2434" stroke-width="2" stroke-linecap="round" stroke-linejoin="round"/>
<path d="M22.75 32.5H35.25" stroke="#1A2434" stroke-width="2" stroke-linecap="round" stroke-linejoin="round"/>
</g>
<defs>
<clipPath id="clip0_8_1008">
<rect width="80" height="80" fill="white" transform="translate(0.25)"/>
</clipPath>
</defs>
</svg>
