<svg width="152" height="51" viewBox="0 0 152 51" fill="none" xmlns="http://www.w3.org/2000/svg">
<rect x="1" y="0.5" width="150" height="50" rx="8" fill="white"/>
<rect x="1" y="0.5" width="150" height="50" rx="8" stroke="#EBEFF6"/>
<path d="M70.3532 30.3848C70.3532 34.5489 67.0957 37.6174 63.0979 37.6174C59.1001 37.6174 55.8426 34.5489 55.8426 30.3848C55.8426 26.1913 59.1001 23.1522 63.0979 23.1522C67.0957 23.1522 70.3532 26.1913 70.3532 30.3848ZM67.1772 30.3848C67.1772 27.7826 65.2892 26.0022 63.0979 26.0022C60.9066 26.0022 59.0186 27.7826 59.0186 30.3848C59.0186 32.9609 60.9066 34.7674 63.0979 34.7674C65.2892 34.7674 67.1772 32.9576 67.1772 30.3848Z" fill="#EA4335"/>
<path d="M86.007 30.3848C86.007 34.5489 82.7494 37.6174 78.7516 37.6174C74.7538 37.6174 71.4963 34.5489 71.4963 30.3848C71.4963 26.1946 74.7538 23.1522 78.7516 23.1522C82.7494 23.1522 86.007 26.1913 86.007 30.3848ZM82.8309 30.3848C82.8309 27.7826 80.9429 26.0022 78.7516 26.0022C76.5603 26.0022 74.6723 27.7826 74.6723 30.3848C74.6723 32.9609 76.5603 34.7674 78.7516 34.7674C80.9429 34.7674 82.8309 32.9576 82.8309 30.3848Z" fill="#FBBC05"/>
<path d="M101.006 23.5891V36.5739C101.006 41.9152 97.8557 44.0967 94.1318 44.0967C90.6264 44.0967 88.5167 41.7522 87.721 39.8348L90.4862 38.6837C90.9786 39.8609 92.1851 41.25 94.1286 41.25C96.5122 41.25 97.9894 39.7793 97.9894 37.0109V35.9707H97.8785C97.1676 36.8478 95.7981 37.6141 94.0699 37.6141C90.4536 37.6141 87.1406 34.4641 87.1406 30.4109C87.1406 26.3283 90.4536 23.1522 94.0699 23.1522C95.7948 23.1522 97.1644 23.9185 97.8785 24.7696H97.9894V23.5924H101.006V23.5891ZM98.2144 30.4109C98.2144 27.8641 96.5155 26.0022 94.3536 26.0022C92.1623 26.0022 90.3264 27.8641 90.3264 30.4109C90.3264 32.9315 92.1623 34.7674 94.3536 34.7674C96.5155 34.7674 98.2144 32.9315 98.2144 30.4109Z" fill="#4285F4"/>
<path d="M105.979 15.9785V37.1742H102.881V15.9785H105.979Z" fill="#34A853"/>
<path d="M118.051 32.765L120.516 34.4084C119.72 35.5856 117.803 37.6139 114.49 37.6139C110.381 37.6139 107.313 34.4378 107.313 30.3813C107.313 26.0802 110.408 23.1487 114.135 23.1487C117.888 23.1487 119.724 26.1356 120.324 27.7497L120.653 28.5715L110.985 32.5758C111.725 34.0269 112.876 34.7671 114.49 34.7671C116.107 34.7671 117.229 33.9715 118.051 32.765ZM110.463 30.1628L116.926 27.4791C116.57 26.5758 115.501 25.9465 114.242 25.9465C112.628 25.9465 110.381 27.3715 110.463 30.1628Z" fill="#EA4335"/>
<path d="M44.1165 28.503V25.4345H54.4566C54.5577 25.9693 54.6099 26.6019 54.6099 27.2866C54.6099 29.5888 53.9805 32.4356 51.9523 34.4638C49.9795 36.5182 47.4589 37.6138 44.1198 37.6138C37.9307 37.6138 32.7264 32.5725 32.7264 26.3834C32.7264 20.1943 37.9307 15.153 44.1198 15.153C47.5436 15.153 49.9827 16.4964 51.8153 18.2475L49.6501 20.4127C48.336 19.1801 46.5556 18.2214 44.1165 18.2214C39.597 18.2214 36.0623 21.8638 36.0623 26.3834C36.0623 30.903 39.597 34.5453 44.1165 34.5453C47.048 34.5453 48.7175 33.3682 49.7871 32.2986C50.6545 31.4312 51.2251 30.1921 51.4501 28.4997L44.1165 28.503Z" fill="#4285F4"/>
</svg>
