<svg width="20" height="19" viewBox="0 0 20 19" fill="none" xmlns="http://www.w3.org/2000/svg">
<path d="M8.79894 0.927052C9.0983 0.00574112 10.4017 0.00573993 10.7011 0.927051L12.2197 5.60081C12.3535 6.01284 12.7375 6.2918 13.1707 6.2918H18.085C19.0537 6.2918 19.4565 7.53141 18.6728 8.10081L14.697 10.9894C14.3466 11.244 14.1999 11.6954 14.3338 12.1074L15.8524 16.7812C16.1517 17.7025 15.0972 18.4686 14.3135 17.8992L10.3378 15.0106C9.9873 14.756 9.5127 14.756 9.16221 15.0106L5.18648 17.8992C4.40276 18.4686 3.34828 17.7025 3.64763 16.7812L5.16623 12.1074C5.30011 11.6954 5.15345 11.244 4.80296 10.9894L0.827221 8.10081C0.0435073 7.53141 0.446283 6.2918 1.41501 6.2918H6.32929C6.76252 6.2918 7.14647 6.01284 7.28035 5.60081L8.79894 0.927052Z" fill="#FFB31F"/>
</svg>
