<svg width="150" height="51" viewBox="0 0 150 51" fill="none" xmlns="http://www.w3.org/2000/svg">
<rect x="0.5" y="1" width="149" height="49" rx="7.5" fill="white"/>
<rect x="0.5" y="1" width="149" height="49" rx="7.5" stroke="#EBEFF6"/>
<path fill-rule="evenodd" clip-rule="evenodd" d="M57.2643 29.5295L57.2432 29.2471H56.9599H55.2018H54.8838L54.8968 29.5648C55.0419 33.1047 57.4284 35.4494 61.6728 35.4494C65.7208 35.4494 68.4734 33.3462 68.4734 30.1628C68.4734 28.4414 67.8762 27.2232 66.7382 26.3913C65.8628 25.7513 64.8161 25.3906 63.0805 25.0143C62.9645 24.9892 62.8436 24.9634 62.6988 24.9329C62.6128 24.9148 62.3042 24.8502 62.3205 24.8537C59.1685 24.1929 58.1687 23.6188 58.1687 21.9093C58.1687 20.1414 59.6144 19.0157 62.039 19.0157C64.3981 19.0157 65.889 20.4564 65.9584 22.7244L65.9675 23.0203H66.2635H67.9972H68.3096L68.3024 22.708C68.2208 19.1728 65.8488 16.7936 62.0146 16.7936C58.2568 16.7936 55.7756 19.0547 55.7756 21.9825C55.7756 23.699 56.3722 24.8944 57.512 25.6931C58.3803 26.3015 59.3862 26.624 61.1606 26.9823C61.2437 26.9991 61.3304 27.0164 61.4336 27.0369C61.4975 27.0495 61.5697 27.0638 61.7051 27.0906C63.384 27.4228 64.1248 27.6278 64.8006 28.0208C65.6396 28.5086 66.0559 29.2054 66.0559 30.2848C66.0559 32.1589 64.4802 33.2273 61.7216 33.2273C59.0807 33.2273 57.4418 31.9029 57.2643 29.5295ZM73.4182 16.4883V16.1831H73.113H71.3792H71.074V16.4883V34.8023V35.1075H71.3792H73.113H73.4182V34.8023V31.5369L75.8858 29.1337L80.2924 34.9859L80.384 35.1075H80.5363H82.6851H83.3001L82.9282 34.6177L77.5466 27.5292L82.5098 22.5896L83.0338 22.068H82.2944H79.9747H79.8476L79.7581 22.1582L73.4182 28.5431V16.4883ZM95.3219 29.3936H95.6086L95.6265 29.1074C95.6296 29.057 95.6343 28.9738 95.639 28.8736C95.6427 28.7942 95.6457 28.7169 95.6479 28.6438C95.6502 28.5646 95.6515 28.4925 95.6515 28.429C95.6515 24.5978 93.1139 21.775 89.3637 21.775C85.6205 21.775 82.9537 24.7798 82.9537 28.5755C82.9537 32.4814 85.4996 35.4005 89.3881 35.4005C92.3283 35.4005 94.5997 33.656 95.4181 31.0099L95.5404 30.6145H95.1265H93.3195H93.1039L93.0319 30.8177C92.5179 32.266 91.1265 33.2273 89.4125 33.2273C87.1717 33.2273 85.6096 31.6884 85.3282 29.3936H95.3219ZM85.3992 27.3668C85.7949 25.3121 87.3061 23.9482 89.3637 23.9482C91.4844 23.9482 92.9479 25.2673 93.2681 27.3668H85.3992ZM103.343 24.1436H103.649V23.8383V22.3732V22.068H103.343H100.792V18.8325V18.5273H100.486H98.7527H98.4475V18.8325V22.068H96.3841H96.0788V22.3732V23.8383V24.1436H96.3841H98.4475V31.4569C98.4475 33.8561 99.6918 35.1564 101.976 35.1564C102.375 35.1564 102.718 35.1325 103.007 35.0924C103.185 35.0676 103.308 35.042 103.376 35.0231L103.6 34.961V34.729V33.1662V32.7875L103.23 32.868C103.215 32.8712 103.185 32.8773 103.142 32.8853C103.07 32.8989 102.989 32.9126 102.902 32.9253C102.68 32.9579 102.46 32.9789 102.257 32.9825C102.237 32.9829 102.216 32.9831 102.196 32.9831C101.195 32.9831 100.792 32.5131 100.792 31.3348V24.1436H103.343ZM110.632 35.4005C113.877 35.4005 116.168 33.3473 116.744 30.4418L116.816 30.0773H116.444H114.686H114.451L114.391 30.3041C113.898 32.1583 112.56 33.2273 110.632 33.2273C108.227 33.2273 106.567 31.3294 106.567 28.6C106.567 25.8494 108.224 23.9482 110.632 23.9482C112.56 23.9482 113.898 25.0172 114.391 26.8714L114.451 27.0982H114.686H116.444H116.816L116.744 26.7337C116.168 23.8282 113.877 21.775 110.632 21.775C106.863 21.775 104.198 24.8011 104.198 28.6C104.198 32.378 106.867 35.4005 110.632 35.4005ZM121.133 16.4883V16.1831H120.827H119.094H118.788V16.4883V34.8023V35.1075H119.094H120.827H121.133V34.8023V27.4523C121.133 25.2129 122.496 23.8994 124.563 23.8994C126.538 23.8994 127.53 25.0427 127.53 27.2081V34.8023V35.1075H127.835H129.569H129.874V34.8023V26.8662C129.874 23.8074 127.98 21.775 124.856 21.775C123.249 21.775 121.957 22.3638 121.133 23.2089V16.4883Z" fill="#000008"/>
<path fill-rule="evenodd" clip-rule="evenodd" d="M26.0766 13.8231L33.9255 13L41.7744 13.8231L47.8509 21.9146L33.9255 38L20 21.9146L26.0766 13.8231Z" fill="#FDB300"/>
<path fill-rule="evenodd" clip-rule="evenodd" d="M25.6406 21.9145L33.9255 38L20 21.9146L25.6406 21.9145Z" fill="#EA6C00"/>
<path fill-rule="evenodd" clip-rule="evenodd" d="M42.2101 21.9145L33.9255 38L47.8509 21.9146L42.2101 21.9145Z" fill="#EA6C00"/>
<path fill-rule="evenodd" clip-rule="evenodd" d="M25.6416 21.9145H42.2115L33.9265 38L25.6416 21.9145Z" fill="#FDAD00"/>
<path fill-rule="evenodd" clip-rule="evenodd" d="M33.9263 13L26.0774 13.823L25.6416 21.9145L33.9263 13Z" fill="#FDD231"/>
<path fill-rule="evenodd" clip-rule="evenodd" d="M33.9263 13L41.7752 13.823L42.2115 21.9145L33.9263 13Z" fill="#FDD231"/>
<path fill-rule="evenodd" clip-rule="evenodd" d="M47.8504 21.9145L41.7744 13.8231L42.2101 21.9145L47.8504 21.9145Z" fill="#FDAD00"/>
<path fill-rule="evenodd" clip-rule="evenodd" d="M20 21.9146L26.0766 13.8231L25.6406 21.9145L20 21.9146Z" fill="#FDAD00"/>
<path fill-rule="evenodd" clip-rule="evenodd" d="M33.9263 13L25.6416 21.9145H42.2115L33.9263 13Z" fill="#FEEEB7"/>
</svg>
